<?xml version="1.0" encoding="UTF-8"?>
<svg width="208px" height="52px" viewBox="0 0 208 52" version="1.1" xmlns="http://www.w3.org/2000/svg" xmlns:xlink="http://www.w3.org/1999/xlink">
    <!-- Generator: Sketch 57.1 (83088) - https://sketch.com -->
    <title>Continuous Logo</title>
    <desc>Created with Sketch.</desc>
    <g id="Continuous-Logo" stroke="none" stroke-width="1" fill="none" fill-rule="evenodd">
        <path d="M25.5,24.7755102 L25.5,27.2244898 L20.6666667,27.2244898 L20.6662676,27.2350676 C16.6271722,27.4475198 13.4166667,30.8336158 13.4166667,34.9795918 C13.4166667,39.2626164 16.842932,42.7346939 21.0694444,42.7346939 C25.1609341,42.7346939 28.5024903,39.4809152 28.7118174,35.3875067 L28.7222222,35.3877551 C28.7222222,34.4860657 29.4435412,33.755102 30.3333333,33.755102 C31.1736925,33.755102 31.8637779,34.4071036 31.9378604,35.2391504 L31.9444444,35.3877551 C31.9444444,41.2487361 27.2558709,46 21.4722222,46 C15.6885736,46 11,41.2487361 11,35.3877551 C11,29.8012931 15.2596489,25.223028 20.667108,24.8064065 L20.6666667,24.7755102 L25.5,24.7755102 Z M29.5277778,6 C35.3114264,6 40,10.7512639 40,16.6122449 C40,22.1987069 35.7403511,26.776972 30.332892,27.1935935 L30.3333333,27.2244898 L25.5,27.2244898 L25.5,24.7755102 L30.333,24.775 L30.3337324,24.7649324 C34.3728278,24.5524802 37.5833333,21.1663842 37.5833333,17.0204082 C37.5833333,12.7373836 34.157068,9.26530612 29.9305556,9.26530612 C25.8390659,9.26530612 22.4975097,12.5190848 22.2881826,16.6124933 L22.2777778,16.6122449 C22.2777778,17.5139343 21.5564588,18.244898 20.6666667,18.244898 C19.8263075,18.244898 19.1362221,17.5928964 19.0621396,16.7608496 L19.0555556,16.6122449 C19.0555556,10.7512639 23.7441291,6 29.5277778,6 Z" id="Combined-Shape" stroke="#FFFFFF" stroke-width="5" fill="#DFDEE4" stroke-linejoin="bevel" transform="translate(25.500000, 26.000000) scale(-1, -1) translate(-25.500000, -26.000000) "></path>
        <path d="M67.41,30.54 L68.19,30.54 C68.2900005,31.1000028 68.3799996,31.8049957 68.46,32.655 C68.5400001,33.5050042 68.5600002,34.329996 68.52,35.13 C68.2199985,35.3700012 67.8600021,35.5649992 67.44,35.715 C67.0199979,35.8650008 66.5750024,35.9899995 66.105,36.09 C65.6349977,36.1900005 65.1550024,36.2599998 64.665,36.3 C64.1749976,36.3400002 63.7100022,36.36 63.27,36.36 C61.59,36.36 60.09,36.1450021 58.77,35.715 C57.4499934,35.2849978 56.3350046,34.6300044 55.425,33.75 C54.5149955,32.8699956 53.8150025,31.7450068 53.325,30.375 C52.8349975,29.0049932 52.59,27.3800094 52.59,25.5 C52.59,23.5399902 52.8599973,21.8750069 53.4,20.505 C53.9400027,19.1349931 54.6699954,18.0150043 55.59,17.145 C56.5100046,16.2749957 57.5799939,15.64 58.8,15.24 C60.0200061,14.839998 61.2999933,14.64 62.64,14.64 C63.9600066,14.64 65.0699955,14.7249992 65.97,14.895 C66.8700045,15.0650009 67.6599966,15.3199983 68.34,15.66 C68.34,15.9800016 68.3300001,16.3549979 68.31,16.785 C68.2899999,17.2150022 68.2600002,17.6699976 68.22,18.15 C68.1799998,18.6300024 68.1300003,19.0999977 68.07,19.56 C68.0099997,20.0200023 67.9500003,20.4399981 67.89,20.82 L67.11,20.82 L65.55,16.5 C65.3299989,16.3799994 64.9650025,16.3000002 64.455,16.26 C63.9449975,16.2199998 63.4400025,16.2 62.94,16.2 C61.939995,16.2 60.9950044,16.3849982 60.105,16.755 C59.2149955,17.1250019 58.4350034,17.6949962 57.765,18.465 C57.0949966,19.2350038 56.560002,20.2049942 56.16,21.375 C55.759998,22.5450059 55.56,23.9199921 55.56,25.5 C55.56,26.9200071 55.7399982,28.2049943 56.1,29.355 C56.4600018,30.5050057 56.9799966,31.4849959 57.66,32.295 C58.3400034,33.105004 59.1699951,33.7249979 60.15,34.155 C61.1300049,34.5850022 62.2399938,34.8 63.48,34.8 C64.1400033,34.8 64.6899978,34.7500005 65.13,34.65 C65.5700022,34.5499995 65.8599993,34.4200008 66,34.26 L67.41,30.54 Z M70.25,28.5 C70.25,27.2399937 70.4149984,26.1250048 70.745,25.155 C71.0750017,24.1849952 71.5499969,23.3650034 72.17,22.695 C72.7900031,22.0249966 73.5349957,21.5150017 74.405,21.165 C75.2750044,20.8149983 76.2399947,20.64 77.3,20.64 C78.5400062,20.64 79.6099955,20.8299981 80.51,21.21 C81.4100045,21.5900019 82.1449972,22.1249966 82.715,22.815 C83.2850029,23.5050035 83.7049987,24.3299952 83.975,25.29 C84.2450014,26.2500048 84.38,27.3199941 84.38,28.5 C84.38,31.0200126 83.7400064,32.9599932 82.46,34.32 C81.1799936,35.6800068 79.4600108,36.36 77.3,36.36 C76.099994,36.36 75.0600044,36.1750019 74.18,35.805 C73.2999956,35.4349981 72.5700029,34.9050035 71.99,34.215 C71.4099971,33.5249965 70.9750015,32.6950049 70.685,31.725 C70.3949986,30.7549951 70.25,29.6800059 70.25,28.5 Z M73.13,28.5 C73.13,29.4000045 73.2149992,30.249996 73.385,31.05 C73.5550009,31.850004 73.8249982,32.544997 74.195,33.135 C74.5650019,33.725003 75.049997,34.1899983 75.65,34.53 C76.250003,34.8700017 76.9699958,35.04 77.81,35.04 C78.8900054,35.04 79.7749966,34.5100053 80.465,33.45 C81.1550035,32.3899947 81.5,30.7400112 81.5,28.5 C81.5,27.5799954 81.4150009,26.725004 81.245,25.935 C81.0749992,25.144996 80.8100018,24.455003 80.45,23.865 C80.0899982,23.274997 79.63,22.8100017 79.07,22.47 C78.5099972,22.1299983 77.8400039,21.96 77.06,21.96 C75.8799941,21.96 74.9300036,22.4899947 74.21,23.55 C73.4899964,24.6100053 73.13,26.2599888 73.13,28.5 Z M101.62,36 L95.1700001,36 L95.1700001,35.25 C95.7100028,34.9699986 96.2999969,34.730001 96.9400001,34.53 L96.9400001,27.42 C96.9400001,25.8999924 96.7200023,24.7000044 96.2800001,23.82 C95.8399979,22.9399956 95.0400059,22.5 93.8800001,22.5 C93.3799976,22.5 92.9150022,22.5899991 92.4850001,22.77 C92.0549979,22.9500009 91.6750017,23.1949984 91.3450001,23.505 C91.0149984,23.8150016 90.7300013,24.1649981 90.4900001,24.555 C90.2499989,24.9450019 90.0600008,25.3499979 89.9200001,25.77 L89.9200001,34.53 C90.5400032,34.6500006 91.1399972,34.8899982 91.7200001,35.25 L91.7200001,36 L85.2400001,36 L85.2400001,35.25 C85.7400001,34.9899987 86.399996,34.7500011 87.2200001,34.53 L87.2200001,22.74 L85.2400001,22.5 L85.2400001,21.72 C85.7600027,21.4999989 86.3599967,21.3000009 87.0400001,21.12 C87.7200035,20.9399991 88.4299964,20.7800007 89.1700001,20.64 L89.9200001,20.64 L89.9200001,24 L89.9500001,24 C90.3700022,23.0799954 90.9749961,22.2900033 91.7650001,21.63 C92.555004,20.9699967 93.5099945,20.64 94.6300001,20.64 C95.4300041,20.64 96.1449969,20.734999 96.7750001,20.925 C97.4050032,21.115001 97.929998,21.4499976 98.3500001,21.93 C98.7700022,22.4100024 99.089999,23.0549959 99.3100001,23.865 C99.5300012,24.675004 99.6400001,25.6999938 99.6400001,26.94 L99.6400001,34.53 C100.440004,34.6700007 101.099997,34.9099983 101.62,35.25 L101.62,36 Z M101.28,21.72 C102.040004,21.2399976 102.839996,20.900001 103.68,20.7 L103.68,18.15 C103.940001,17.949999 104.244998,17.7550009 104.595,17.565 C104.945002,17.374999 105.289998,17.2100007 105.63,17.07 L106.38,17.07 L106.38,21 L110.88,21 L110.88,22.5 L106.38,22.5 L106.38,31.2 C106.38,32.400006 106.569998,33.2499975 106.95,33.75 C107.330002,34.2500025 107.899996,34.5 108.66,34.5 C109.020002,34.5 109.469997,34.4750003 110.01,34.425 C110.550003,34.3749998 111.009998,34.2800007 111.39,34.14 L111.6,34.59 C111.439999,34.7700009 111.215002,34.959999 110.925,35.16 C110.634999,35.360001 110.305002,35.5499991 109.935,35.73 C109.564998,35.9100009 109.160002,36.0599994 108.72,36.18 C108.28,36.3000006 107.830002,36.36 107.37,36.36 C106.169994,36.36 105.255003,36.0200034 104.625,35.34 C103.994997,34.6599966 103.68,33.5600076 103.68,32.04 L103.68,22.5 L101.28,22.5 L101.28,21.72 Z M118.55,36 L111.89,36 L111.89,35.25 C112.190002,35.0899992 112.499999,34.9550006 112.82,34.845 C113.140002,34.7349995 113.489998,34.6300005 113.87,34.53 L113.87,22.74 L111.89,22.5 L111.89,21.72 C112.470003,21.4799988 113.099997,21.2700009 113.78,21.09 C114.460004,20.9099991 115.139997,20.7600006 115.82,20.64 L116.57,20.64 L116.57,34.53 C116.970002,34.6300005 117.329999,34.7349995 117.65,34.845 C117.970002,34.9550006 118.269999,35.0899992 118.55,35.25 L118.55,36 Z M113.3,15.9 C113.3,15.3599973 113.474998,14.9300016 113.825,14.61 C114.175002,14.2899984 114.639997,14.13 115.22,14.13 C115.8,14.13 116.259998,14.2899984 116.6,14.61 C116.940002,14.9300016 117.11,15.3599973 117.11,15.9 C117.11,16.4400027 116.940002,16.8649985 116.6,17.175 C116.259998,17.4850015 115.8,17.64 115.22,17.64 C114.639997,17.64 114.175002,17.4850015 113.825,17.175 C113.474998,16.8649985 113.3,16.4400027 113.3,15.9 Z M135.7,36 L129.25,36 L129.25,35.25 C129.790003,34.9699986 130.379997,34.730001 131.02,34.53 L131.02,27.42 C131.02,25.8999924 130.800002,24.7000044 130.36,23.82 C129.919998,22.9399956 129.120006,22.5 127.96,22.5 C127.459998,22.5 126.995002,22.5899991 126.565,22.77 C126.134998,22.9500009 125.755002,23.1949984 125.425,23.505 C125.094999,23.8150016 124.810001,24.1649981 124.57,24.555 C124.329999,24.9450019 124.140001,25.3499979 124,25.77 L124,34.53 C124.620003,34.6500006 125.219997,34.8899982 125.8,35.25 L125.8,36 L119.32,36 L119.32,35.25 C119.82,34.9899987 120.479996,34.7500011 121.3,34.53 L121.3,22.74 L119.32,22.5 L119.32,21.72 C119.840003,21.4999989 120.439997,21.3000009 121.12,21.12 C121.800004,20.9399991 122.509997,20.7800007 123.25,20.64 L124,20.64 L124,24 L124.03,24 C124.450002,23.0799954 125.054996,22.2900033 125.845,21.63 C126.635004,20.9699967 127.589995,20.64 128.71,20.64 C129.510004,20.64 130.224997,20.734999 130.855,20.925 C131.485003,21.115001 132.009998,21.4499976 132.43,21.93 C132.850002,22.4100024 133.169999,23.0549959 133.39,23.865 C133.610001,24.675004 133.72,25.6999938 133.72,26.94 L133.72,34.53 C134.520004,34.6700007 135.179998,34.9099983 135.7,35.25 L135.7,36 Z M137.22,30.06 C137.22,28.7999937 137.25,27.5650061 137.31,26.355 C137.370001,25.1449939 137.4,23.940006 137.4,22.74 L135.42,22.5 L135.42,21.72 C136.060003,21.4799988 136.714997,21.2700009 137.385,21.09 C138.055004,20.9099991 138.709997,20.7600006 139.35,20.64 L140.1,20.64 C140.1,22.14 140.070001,23.6299926 140.01,25.11 C139.95,26.5900074 139.92,28.0599927 139.92,29.52 C139.92,30.3000039 139.965,30.9999969 140.055,31.62 C140.145001,32.2400031 140.304999,32.7599979 140.535,33.18 C140.765001,33.6000021 141.079998,33.9249989 141.48,34.155 C141.880002,34.3850012 142.389997,34.5 143.01,34.5 C143.910005,34.5 144.664997,34.1750033 145.275,33.525 C145.885003,32.8749968 146.359999,32.0300052 146.7,30.99 L146.7,22.74 L144.75,22.5 L144.75,21.72 C145.370003,21.4799988 146.014997,21.2700009 146.685,21.09 C147.355004,20.9099991 148.009997,20.7600006 148.65,20.64 L149.4,20.64 L149.4,34.29 L151.38,34.53 L151.38,35.16 C150.799997,35.4200013 150.215003,35.649999 149.625,35.85 C149.034997,36.050001 148.42,36.1999995 147.78,36.3 L147.03,36.3 L146.82,32.73 L146.7,32.73 C146.6,33.1500021 146.425002,33.5749979 146.175,34.005 C145.924999,34.4350022 145.600002,34.8249983 145.2,35.175 C144.799998,35.5250018 144.345003,35.8099989 143.835,36.03 C143.324998,36.2500011 142.770003,36.36 142.17,36.36 C141.369996,36.36 140.665003,36.265001 140.055,36.075 C139.444997,35.884999 138.930002,35.5500024 138.51,35.07 C138.089998,34.5899976 137.770001,33.9450041 137.55,33.135 C137.329999,32.324996 137.22,31.3000062 137.22,30.06 Z M152.06,28.5 C152.06,27.2399937 152.224999,26.1250048 152.555,25.155 C152.885002,24.1849952 153.359997,23.3650034 153.98,22.695 C154.600003,22.0249966 155.344996,21.5150017 156.215,21.165 C157.085005,20.8149983 158.049995,20.64 159.11,20.64 C160.350007,20.64 161.419996,20.8299981 162.32,21.21 C163.220005,21.5900019 163.954997,22.1249966 164.525,22.815 C165.095003,23.5050035 165.514999,24.3299952 165.785,25.29 C166.055002,26.2500048 166.19,27.3199941 166.19,28.5 C166.19,31.0200126 165.550007,32.9599932 164.27,34.32 C162.989994,35.6800068 161.270011,36.36 159.11,36.36 C157.909994,36.36 156.870005,36.1750019 155.99,35.805 C155.109996,35.4349981 154.380003,34.9050035 153.8,34.215 C153.219997,33.5249965 152.785002,32.6950049 152.495,31.725 C152.204999,30.7549951 152.06,29.6800059 152.06,28.5 Z M154.94,28.5 C154.94,29.4000045 155.024999,30.249996 155.195,31.05 C155.365001,31.850004 155.634998,32.544997 156.005,33.135 C156.375002,33.725003 156.859997,34.1899983 157.46,34.53 C158.060003,34.8700017 158.779996,35.04 159.62,35.04 C160.700006,35.04 161.584997,34.5100053 162.275,33.45 C162.965004,32.3899947 163.31,30.7400112 163.31,28.5 C163.31,27.5799954 163.225001,26.725004 163.055,25.935 C162.884999,25.144996 162.620002,24.455003 162.26,23.865 C161.899999,23.274997 161.44,22.8100017 160.88,22.47 C160.319998,22.1299983 159.650004,21.96 158.87,21.96 C157.689994,21.96 156.740004,22.4899947 156.02,23.55 C155.299997,24.6100053 154.94,26.2599888 154.94,28.5 Z M168.43,30.06 C168.43,28.7999937 168.46,27.5650061 168.52,26.355 C168.580001,25.1449939 168.61,23.940006 168.61,22.74 L166.63,22.5 L166.63,21.72 C167.270004,21.4799988 167.924997,21.2700009 168.595,21.09 C169.265004,20.9099991 169.919997,20.7600006 170.56,20.64 L171.31,20.64 C171.31,22.14 171.280001,23.6299926 171.22,25.11 C171.16,26.5900074 171.13,28.0599927 171.13,29.52 C171.13,30.3000039 171.175,30.9999969 171.265,31.62 C171.355001,32.2400031 171.514999,32.7599979 171.745,33.18 C171.975002,33.6000021 172.289998,33.9249989 172.69,34.155 C173.090002,34.3850012 173.599997,34.5 174.22,34.5 C175.120005,34.5 175.874997,34.1750033 176.485,33.525 C177.095003,32.8749968 177.569999,32.0300052 177.91,30.99 L177.91,22.74 L175.96,22.5 L175.96,21.72 C176.580003,21.4799988 177.224997,21.2700009 177.895,21.09 C178.565004,20.9099991 179.219997,20.7600006 179.86,20.64 L180.61,20.64 L180.61,34.29 L182.59,34.53 L182.59,35.16 C182.009997,35.4200013 181.425003,35.649999 180.835,35.85 C180.244997,36.050001 179.63,36.1999995 178.99,36.3 L178.24,36.3 L178.03,32.73 L177.91,32.73 C177.81,33.1500021 177.635002,33.5749979 177.385,34.005 C177.134999,34.4350022 176.810002,34.8249983 176.41,35.175 C176.009998,35.5250018 175.555003,35.8099989 175.045,36.03 C174.534998,36.2500011 173.980003,36.36 173.38,36.36 C172.579996,36.36 171.875003,36.265001 171.265,36.075 C170.654997,35.884999 170.140002,35.5500024 169.72,35.07 C169.299998,34.5899976 168.980001,33.9450041 168.76,33.135 C168.539999,32.324996 168.43,31.3000062 168.43,30.06 Z M190.89,32.58 C190.89,32.0199972 190.715002,31.5450019 190.365,31.155 C190.014999,30.764998 189.570003,30.4000017 189.03,30.06 C188.489998,29.7199983 187.915003,29.3900016 187.305,29.07 C186.694997,28.7499984 186.120003,28.3750022 185.58,27.945 C185.039998,27.5149979 184.595002,27.0200028 184.245,26.46 C183.894999,25.8999972 183.72,25.2100041 183.72,24.39 C183.72,23.8499973 183.844999,23.3500023 184.095,22.89 C184.345002,22.4299977 184.679998,22.0350017 185.1,21.705 C185.520003,21.3749983 186.009998,21.115001 186.57,20.925 C187.130003,20.734999 187.729997,20.64 188.37,20.64 C189.450006,20.64 190.334997,20.6999994 191.025,20.82 C191.715004,20.9400006 192.379997,21.1099989 193.02,21.33 C192.94,21.9700032 192.845001,22.6149967 192.735,23.265 C192.625,23.9150033 192.470001,24.5799966 192.27,25.26 L191.52,25.26 L190.38,22.2 C190.139999,22.0999995 189.870002,22.0350002 189.57,22.005 C189.269999,21.9749999 188.960002,21.96 188.64,21.96 C188.279999,21.96 187.965002,22.0249994 187.695,22.155 C187.424999,22.2850007 187.195001,22.449999 187.005,22.65 C186.814999,22.850001 186.670001,23.0799987 186.57,23.34 C186.47,23.6000013 186.42,23.8599987 186.42,24.12 C186.42,24.6600027 186.594999,25.1249981 186.945,25.515 C187.295002,25.9050019 187.739998,26.2649983 188.28,26.595 C188.820003,26.9250016 189.394997,27.2499984 190.005,27.57 C190.615003,27.8900016 191.189998,28.249998 191.73,28.65 C192.270003,29.050002 192.714999,29.5149974 193.065,30.045 C193.415002,30.5750026 193.59,31.2099963 193.59,31.95 C193.59,32.6300034 193.445002,33.2399973 193.155,33.78 C192.864999,34.3200027 192.465003,34.7799981 191.955,35.16 C191.444998,35.5400019 190.855004,35.8349989 190.185,36.045 C189.514997,36.2550011 188.800004,36.36 188.04,36.36 C187.179996,36.36 186.390004,36.2850008 185.67,36.135 C184.949997,35.9849993 184.200004,35.7700014 183.42,35.49 C183.460001,34.7699964 183.55,34.0750034 183.69,33.405 C183.830001,32.7349966 184.009999,32.0900031 184.23,31.47 L184.98,31.47 L186.3,34.74 C186.520002,34.9000008 186.784999,34.9899999 187.095,35.01 C187.405002,35.0300001 187.689999,35.04 187.95,35.04 C188.830005,35.04 189.539998,34.8000024 190.08,34.32 C190.620003,33.8399976 190.89,33.2600034 190.89,32.58 Z" id="Continuous" fill="#FFFFFF" fill-rule="nonzero"></path>
    </g>
</svg>