<?xml version="1.0" encoding="UTF-8"?>
<svg width="351px" height="90px" viewBox="0 0 351 90" version="1.1" xmlns="http://www.w3.org/2000/svg" xmlns:xlink="http://www.w3.org/1999/xlink">
    <!-- Generator: Sketch 54.1 (76490) - https://sketchapp.com -->
    <title>Logo with text</title>
    <desc>Created with Sketch.</desc>
    <g id="Logo-with-text" stroke="none" stroke-width="1" fill="none" fill-rule="evenodd">
        <g id="Leanbase-Textual-Logo" transform="translate(7.000000, 5.000000)">
            <g id="Leanbase-logo">
                <path d="M29.7421875,15 L29.7421875,38.125 C18.3515625,45.2083333 12.4453125,54.7916667 12.0234375,66.875 C13.2890625,70.2083333 15.1875,71.875 17.71875,71.875 L61.3828125,71.875 C63.9140625,71.875 65.6015625,70.2083333 66.4453125,66.875 C66.0234375,55.625 60.1171875,46.0416667 48.7265625,38.125 L48.7265625,15 L29.7421875,15 Z" id="flask" fill-opacity="0.2" fill="#59C4FF" fill-rule="evenodd"></path>
                <path d="M31.0078125,15 L31.0078125,38.8150978 L30.4165293,39.1827911 C19.4509643,46.0017981 13.7775078,55.1282125 13.2979457,66.6660774 C14.3856798,69.3947928 15.837617,70.625 17.71875,70.625 L61.3828125,70.625 C63.2218983,70.625 64.4514393,69.4474481 65.1733311,66.7417087 C64.7111488,55.9843987 59.0210498,46.8083125 47.9982037,39.147258 L47.4609375,38.7738494 L47.4609375,15 L49.9921875,15 L49.9921875,37.4802023 C61.3395006,45.5391962 67.2793722,55.3434524 67.7100703,66.8287354 L67.7167193,67.0060405 L67.6731491,67.1781695 C66.7010815,71.0184366 64.5681861,73.125 61.3828125,73.125 L17.71875,73.125 C14.5894391,73.125 12.2724749,71.0909024 10.8383959,67.3139043 L10.7498762,67.080766 L10.7585643,66.8319222 C11.1879275,54.5341108 17.1257134,44.7031914 28.4765625,37.440183 L28.4765625,15 L31.0078125,15 Z" id="flask-outline" fill="#0091FF" fill-rule="nonzero"></path>
                <path d="M20.25,49.375 C25.9453125,53.125 31.5219455,47.5 36.0703125,47.5 C43.6640625,47.5 44.296875,54.375 50.625,49.375 C52.1842779,48.1429779 53.7890625,46.875 56.953125,49.375 C60.75,53.75 65.1796875,61.875 63.9140625,66.25 C63.9140625,66.25 63.9140625,67.5 62.015625,69.375 C46.40625,67.2916667 31.640625,67.2916667 17.71875,69.375 C16.03125,68.5416667 14.9765625,67.5 14.5546875,66.25 C13.921875,61.875 15.1875,55.625 20.25,49.375 Z" id="fluid" fill="#009BA3" fill-rule="evenodd"></path>
                <path d="M33.5390625,16.25 C33.5390625,20.4166667 33.5390625,28.3333333 33.5390625,40 C22.1484375,50 16.453125,58.75 16.453125,66.25 L24.046875,66.25 C24.046875,57.5 28.265625,48.75 36.703125,40 C36.703125,33.75 36.703125,25.8333333 36.703125,16.25 L33.5390625,16.25 Z" id="shine" fill="#FFFFFF" fill-rule="evenodd" opacity="0.7" style="mix-blend-mode: screen;"></path>
                <rect id="Brim" fill-opacity="0.4" fill="#59C4FF" fill-rule="evenodd" x="24.046875" y="5" width="30.375" height="10" rx="4"></rect>
                <path d="M26.578125,5 L51.890625,5 C53.2885958,5 54.421875,6.11928813 54.421875,7.5 L54.421875,12.5 C54.421875,13.8807119 53.2885958,15 51.890625,15 L26.578125,15 C25.1801542,15 24.046875,13.8807119 24.046875,12.5 L24.046875,7.5 C24.046875,6.11928813 25.1801542,5 26.578125,5 Z M26.578125,7.5 L26.578125,12.5 L51.890625,12.5 L51.890625,7.5 L26.578125,7.5 Z" id="Brim-outline" fill="#0091FF" fill-rule="nonzero"></path>
            </g>
            <path d="M87.594,52.948 C87.594,54.477341 87.8213311,55.5416637 88.276,56.141 C88.7306689,56.7403363 89.5779938,57.04 90.818,57.04 C91.6033373,57.04 92.2749972,56.9883339 92.833,56.885 C93.3910028,56.7816661 94.0833292,56.5646683 94.91,56.234 L94.166,61.566 C92.7606596,62.2686702 91.0453435,62.62 89.02,62.62 C86.2506528,62.62 84.2150065,61.9173404 82.913,60.512 C81.6109935,59.1066596 80.96,56.8953484 80.96,53.878 L80.96,17.05 L87.594,17.05 L87.594,52.948 Z M125.204,45.57 C125.204,46.7686727 125.121334,47.905328 124.956,48.98 L102.264,48.98 C102.636002,51.7080136 103.607325,53.7849929 105.178,55.211 C106.748675,56.6370071 108.773988,57.35 111.254,57.35 C113.279343,57.35 114.96366,56.988337 116.307,56.265 C117.65034,55.541663 118.569998,54.4980068 119.066,53.134 L124.584,55.428 C122.269322,60.2226906 117.826033,62.62 111.254,62.62 C106.376642,62.62 102.56368,61.1940143 99.815,58.342 C97.0663196,55.4899857 95.692,51.5426919 95.692,46.5 C95.692,41.4159746 97.0146534,37.4583475 99.66,34.627 C102.305347,31.7956525 106.025309,30.38 110.82,30.38 C115.366689,30.38 118.900654,31.7646528 121.422,34.534 C123.943346,37.3033472 125.204,40.9819771 125.204,45.57 Z M110.82,35.65 C108.422655,35.65 106.490341,36.3526596 105.023,37.758 C103.555659,39.1633404 102.636002,41.2093199 102.264,43.896 L119.004,43.896 C118.673332,41.291987 117.795007,39.2666739 116.369,37.82 C114.942993,36.3733261 113.093345,35.65 110.82,35.65 Z M157.296,57.66 C158.205338,57.66 158.969997,57.5773342 159.59,57.412 L159.156,61.876 C158.039994,62.3720025 156.758674,62.62 155.312,62.62 C153.534658,62.62 152.119005,62.2686702 151.065,61.566 C150.010995,60.8633298 149.318668,59.6853416 148.988,58.032 C148.037329,59.4786739 146.632009,60.604996 144.772,61.411 C142.911991,62.217004 140.824678,62.62 138.51,62.62 C135.492652,62.62 133.054009,61.9173404 131.194,60.512 C129.333991,59.1066596 128.404,57.102013 128.404,54.498 C128.404,52.0593211 129.416657,50.0030084 131.442,48.329 C133.467343,46.6549916 136.484647,45.4666702 140.494,44.764 L148.368,43.4 L148.368,41.726 C148.368,39.8246572 147.810006,38.3263388 146.694,37.231 C145.577994,36.1356612 144.02801,35.588 142.044,35.588 C137.95198,35.588 135.286006,37.4479814 134.046,41.168 L128.9,38.44 C129.644004,35.9599876 131.162989,33.9966739 133.457,32.55 C135.751011,31.1033261 138.571983,30.38 141.92,30.38 C145.929353,30.38 149.111988,31.3099907 151.468,33.17 C153.824012,35.0300093 155.002,37.757982 155.002,41.354 L155.002,55.366 C155.002,56.1513373 155.177665,56.7299981 155.529,57.102 C155.880335,57.4740019 156.469329,57.66 157.296,57.66 Z M139.936,57.598 C142.168011,57.598 144.131325,57.060672 145.826,55.986 C147.520675,54.911328 148.368,53.4853422 148.368,51.708 L148.368,47.988 L141.61,49.352 C139.460656,49.7653354 137.869338,50.3439963 136.836,51.088 C135.802661,51.8320037 135.286,52.8239938 135.286,54.064 C135.286,55.2213391 135.688996,56.0996637 136.495,56.699 C137.301004,57.2983363 138.447993,57.598 139.936,57.598 Z M179.53,30.38 C182.960684,30.38 185.760989,31.3719901 187.931,33.356 C190.101011,35.3400099 191.186,38.1919814 191.186,41.912 L191.186,62 L184.552,62 L184.552,44.02 C184.552,38.5639727 182.340689,35.836 177.918,35.836 C175.603322,35.836 173.619342,36.6316587 171.966,38.223 C170.312658,39.8143413 169.486,42.2633168 169.486,45.57 L169.486,62 L162.852,62 L162.852,31 L168.742,31 L169.052,36.146 C170.085338,34.2033236 171.511324,32.7566714 173.33,31.806 C175.148676,30.8553286 177.215322,30.38 179.53,30.38 Z M214.908,30.38 C219.165355,30.38 222.513321,31.816319 224.952,34.689 C227.390679,37.561681 228.61,41.5193081 228.61,46.562 C228.61,51.6046919 227.390679,55.5416525 224.952,58.373 C222.513321,61.2043475 219.165355,62.62 214.908,62.62 C212.469321,62.62 210.330343,62.0413391 208.491,60.884 C206.651657,59.7266609 205.277338,58.1766764 204.368,56.234 L204.058,62 L198.23,62 L198.23,17.05 L204.864,17.05 L204.864,35.96 C205.814671,34.2239913 207.168325,32.860005 208.925,31.868 C210.681675,30.875995 212.675989,30.38 214.908,30.38 Z M213.42,57.288 C216.10668,57.288 218.204326,56.3373428 219.713,54.436 C221.221674,52.5346572 221.976,49.8893503 221.976,46.5 C221.976,43.1106497 221.221674,40.4756761 219.713,38.595 C218.204326,36.7143239 216.10668,35.774 213.42,35.774 C210.898654,35.774 208.883674,36.6213249 207.375,38.316 C205.866326,40.0106751 205.029334,42.3459851 204.864,45.322 L204.864,47.678 C205.029334,50.6953484 205.866326,53.0513249 207.375,54.746 C208.883674,56.4406751 210.898654,57.288 213.42,57.288 Z M260.95,57.66 C261.859338,57.66 262.623997,57.5773342 263.244,57.412 L262.81,61.876 C261.693994,62.3720025 260.412674,62.62 258.966,62.62 C257.188658,62.62 255.773005,62.2686702 254.719,61.566 C253.664995,60.8633298 252.972668,59.6853416 252.642,58.032 C251.691329,59.4786739 250.286009,60.604996 248.426,61.411 C246.565991,62.217004 244.478678,62.62 242.164,62.62 C239.146652,62.62 236.708009,61.9173404 234.848,60.512 C232.987991,59.1066596 232.058,57.102013 232.058,54.498 C232.058,52.0593211 233.070657,50.0030084 235.096,48.329 C237.121343,46.6549916 240.138647,45.4666702 244.148,44.764 L252.022,43.4 L252.022,41.726 C252.022,39.8246572 251.464006,38.3263388 250.348,37.231 C249.231994,36.1356612 247.68201,35.588 245.698,35.588 C241.60598,35.588 238.940006,37.4479814 237.7,41.168 L232.554,38.44 C233.298004,35.9599876 234.816989,33.9966739 237.111,32.55 C239.405011,31.1033261 242.225983,30.38 245.574,30.38 C249.583353,30.38 252.765988,31.3099907 255.122,33.17 C257.478012,35.0300093 258.656,37.757982 258.656,41.354 L258.656,55.366 C258.656,56.1513373 258.831665,56.7299981 259.183,57.102 C259.534335,57.4740019 260.123329,57.66 260.95,57.66 Z M243.59,57.598 C245.822011,57.598 247.785325,57.060672 249.48,55.986 C251.174675,54.911328 252.022,53.4853422 252.022,51.708 L252.022,47.988 L245.264,49.352 C243.114656,49.7653354 241.523338,50.3439963 240.49,51.088 C239.456661,51.8320037 238.94,52.8239938 238.94,54.064 C238.94,55.2213391 239.342996,56.0996637 240.149,56.699 C240.955004,57.2983363 242.101993,57.598 243.59,57.598 Z M277.728,62.62 C274.586651,62.62 271.807012,62.082672 269.389,61.008 C266.970988,59.933328 265.142006,58.3006776 263.902,56.11 L268.366,52.266 C269.151337,54.0433422 270.370658,55.3453292 272.024,56.172 C273.677342,56.9986708 275.661322,57.412 277.976,57.412 C280.084011,57.412 281.716661,57.0710034 282.874,56.389 C284.031339,55.7069966 284.61,54.8080056 284.61,53.692 C284.61,52.699995 284.072672,51.9043363 282.998,51.305 C281.923328,50.7056637 280.063347,50.137336 277.418,49.6 C272.829977,48.7319957 269.606009,47.5746739 267.746,46.128 C265.885991,44.6813261 264.956,42.6353466 264.956,39.99 C264.956,38.2953249 265.472661,36.7143407 266.506,35.247 C267.539338,33.7796593 269.037657,32.6016711 271.001,31.713 C272.964343,30.8243289 275.28932,30.38 277.976,30.38 C281.406684,30.38 284.155323,30.9483276 286.222,32.085 C288.288677,33.2216723 289.879994,34.9886547 290.996,37.386 L286.284,40.858 C285.539996,39.0393242 284.49634,37.7063376 283.153,36.859 C281.80966,36.0116624 280.104677,35.588 278.038,35.588 C276.177991,35.588 274.638339,35.9703295 273.419,36.735 C272.199661,37.4996705 271.59,38.377995 271.59,39.37 C271.59,40.4860056 272.137661,41.3746634 273.233,42.036 C274.328339,42.6973366 276.322652,43.296664 279.216,43.834 C283.597355,44.6193373 286.697324,45.7353261 288.516,47.182 C290.334676,48.6286739 291.244,50.653987 291.244,53.258 C291.244,56.0273472 290.045345,58.2799913 287.648,60.016 C285.250655,61.7520087 281.944021,62.62 277.728,62.62 Z M323.956,45.57 C323.956,46.7686727 323.873334,47.905328 323.708,48.98 L301.016,48.98 C301.388002,51.7080136 302.359325,53.7849929 303.93,55.211 C305.500675,56.6370071 307.525988,57.35 310.006,57.35 C312.031343,57.35 313.71566,56.988337 315.059,56.265 C316.40234,55.541663 317.321998,54.4980068 317.818,53.134 L323.336,55.428 C321.021322,60.2226906 316.578033,62.62 310.006,62.62 C305.128642,62.62 301.31568,61.1940143 298.567,58.342 C295.81832,55.4899857 294.444,51.5426919 294.444,46.5 C294.444,41.4159746 295.766653,37.4583475 298.412,34.627 C301.057347,31.7956525 304.777309,30.38 309.572,30.38 C314.118689,30.38 317.652654,31.7646528 320.174,34.534 C322.695346,37.3033472 323.956,40.9819771 323.956,45.57 Z M309.572,35.65 C307.174655,35.65 305.242341,36.3526596 303.775,37.758 C302.307659,39.1633404 301.388002,41.2093199 301.016,43.896 L317.756,43.896 C317.425332,41.291987 316.547007,39.2666739 315.121,37.82 C313.694993,36.3733261 311.845345,35.65 309.572,35.65 Z" id="leanbase" fill="#009BA3" fill-rule="nonzero"></path>
        </g>
    </g>
</svg>