<?xml version="1.0" encoding="UTF-8"?>
<svg width="553px" height="437px" viewBox="0 0 553 437" version="1.1" xmlns="http://www.w3.org/2000/svg" xmlns:xlink="http://www.w3.org/1999/xlink">
    <!-- Generator: Sketch 53.1 (72631) - https://sketchapp.com -->
    <title>undraw_timeline_9u4u</title>
    <desc>Created with Sketch.</desc>
    <defs>
        <linearGradient x1="50.8217897%" y1="100.432867%" x2="48.6626307%" y2="0.0685646823%" id="linearGradient-1">
            <stop stop-color="#808080" stop-opacity="0.25" offset="0%"></stop>
            <stop stop-color="#808080" stop-opacity="0.12" offset="54%"></stop>
            <stop stop-color="#808080" stop-opacity="0.1" offset="100%"></stop>
        </linearGradient>
        <linearGradient x1="50%" y1="0%" x2="50%" y2="99.7994088%" id="linearGradient-2">
            <stop stop-color="#009BA3" offset="0%"></stop>
            <stop stop-color="#0091FF" offset="100%"></stop>
        </linearGradient>
        <linearGradient x1="50%" y1="0%" x2="50%" y2="99.7994088%" id="linearGradient-3">
            <stop stop-color="#009BA3" offset="0%"></stop>
            <stop stop-color="#0091FF" offset="100%"></stop>
        </linearGradient>
    </defs>
    <g id="Page-1" stroke="none" stroke-width="1" fill="none" fill-rule="evenodd">
        <g id="Desktop-HD" transform="translate(-805.000000, -99.000000)">
            <g id="undraw_timeline_9u4u" transform="translate(805.000000, 99.000000)">
                <path d="M273.828859,114 C299.353151,109.563158 329.014854,110.334059 361,114 C354.511153,77.5457938 354.214424,41.8403048 361,7 L273.828859,7 C267.39038,42.3815361 267.39038,78.6184639 273.828859,114 L273.828859,114 Z" id="Path" fill="#F2F2F2" fill-rule="nonzero"></path>
                <rect id="Rectangle" fill="#3F3D56" fill-rule="nonzero" transform="translate(316.500000, 4.500000) rotate(-180.000000) translate(-316.500000, -4.500000) " x="301" y="0" width="31" height="9"></rect>
                <path d="M206.828859,327 C232.353151,322.563158 262.014854,323.334059 294,327 C287.511153,290.545794 287.214424,254.840305 294,220 L206.828859,220 C200.39038,255.381536 200.39038,291.618464 206.828859,327 L206.828859,327 Z" id="Path" fill="#000000" fill-rule="nonzero" opacity="0.1"></path>
                <path d="M201.828859,322 C227.353151,317.563158 257.014854,318.334059 289,322 C282.511153,285.545794 282.214424,249.840305 289,215 L201.828859,215 C195.39038,250.381536 195.39038,286.618464 201.828859,322 L201.828859,322 Z" id="Path" fill="#F2F2F2" fill-rule="nonzero"></path>
                <rect id="Rectangle" fill="#3F3D56" fill-rule="nonzero" transform="translate(243.500000, 212.500000) rotate(-180.000000) translate(-243.500000, -212.500000) " x="228" y="208" width="31" height="9"></rect>
                <path d="M127,146 C127,146 160.768584,50.8412256 236,50" id="Path" stroke="#3F3D56" stroke-width="2"></path>
                <path d="M243,49.7255521 C240.020797,50.8822292 236.318891,52.8543638 234,55 L235.902946,49.5462671 L234.228769,44 C236.454073,46.2613039 240.07279,48.4416404 243,49.7255521 Z" id="Path" fill="#3F3D56" fill-rule="nonzero"></path>
                <path d="M131.044511,182 C131.044511,182 128.058514,259.45578 171,270" id="Path" stroke="#3F3D56" stroke-width="2"></path>
                <path d="M179,271.120405 C175.444867,271.800213 170.945682,273.212573 168,275 L170.945682,269.825253 L169.834329,264 C172.045084,266.613745 175.851168,269.36228 179,271.120405 Z" id="Path" fill="#3F3D56" fill-rule="nonzero"></path>
                <path d="M139,156.805222 C139,156.805222 376.279865,118.020577 417,166" id="Path" stroke="#3F3D56" stroke-width="2"></path>
                <path d="M421,172 C418.46114,169.988217 414.891192,167.796107 412,166.928279 L417.088083,165.581455 L420.196891,161 C419.818653,164.245902 420.284974,168.675205 421,172 Z" id="Path" fill="#3F3D56" fill-rule="nonzero"></path>
                <g id="Group" opacity="0.1" transform="translate(0.000000, 399.000000)" fill="#009BA3" fill-rule="nonzero">
                    <ellipse id="Oval" cx="276.5" cy="18.9602985" rx="276.5" ry="18.7164179"></ellipse>
                </g>
                <path d="M519,280.280949 C496.352958,292.861321 473.801237,312.071437 451.299979,335 C433.065718,302.558227 410.513997,274.580816 383,251.719051 L450.700021,197 C478.283882,220.497738 501.414374,248.70169 519,280.280949 Z" id="Path" fill="#000000" fill-rule="nonzero" opacity="0.1"></path>
                <path d="M520,275.280949 C497.352958,287.861321 474.801237,307.071437 452.299979,330 C434.065718,297.558227 411.513997,269.580816 384,246.719051 L451.700021,192 C479.283882,215.497738 502.414374,243.70169 520,275.280949 Z" id="Path" fill="#F2F2F2" fill-rule="nonzero"></path>
                <polygon id="Rectangle" fill="#3F3D56" fill-rule="nonzero" transform="translate(419.697304, 217.749420) rotate(-39.150000) translate(-419.697304, -217.749420) " points="404.557612 212.778777 434.83415 212.787452 434.836996 222.720063 404.560458 222.711388"></polygon>
                <polygon id="Rectangle" fill="#59C4FF" fill-rule="nonzero" transform="translate(442.912108, 246.560637) rotate(-39.150000) translate(-442.912108, -246.560637) " points="416.078094 242.919749 469.744039 242.935125 469.746122 250.201526 416.080176 250.18615"></polygon>
                <path d="M525.763317,410.891275 C525.438162,410.375135 525.029288,409.917268 524.553632,409.53664 C522.11754,407.230403 520.9859,403.832622 520.383845,400.513208 C519.78179,397.193794 519.608978,393.796013 518.644575,390.538173 C518.119082,388.870978 517.462948,387.248182 516.682322,385.685 C516.124864,384.492697 515.422466,382.141679 514.402318,381.307627 C514.200942,381.134523 513.959372,381.015164 513.69992,380.960572 C513.219293,379.932986 512.532241,379.016301 511.681922,378.268097 C510.087591,376.818302 508.142062,375.665183 507.077317,373.789966 C506.785004,373.137619 506.424339,372.518385 506.001422,371.942738 C505.282301,371.14787 504.145086,370.823205 503.481711,369.983556 C502.617651,368.897609 502.812761,367.347057 502.924253,365.958836 C503.035744,364.570616 502.924253,362.919306 501.731292,362.197207 C501.017745,361.754992 500.097939,361.794175 499.35652,361.407937 C498.241603,360.84817 497.801211,359.431962 497.82351,358.172488 C497.845808,356.913013 498.236029,355.687125 498.336371,354.433249 C498.648548,350.425322 496.017345,346.439787 497.031919,342.555009 C497.416565,341.082823 498.297349,339.800959 498.949575,338.435129 C499.175144,337.977895 499.361634,337.50225 499.507034,337.013323 C501.24582,337.706527 503.074052,338.147572 504.936677,338.323176 C501.865082,331.410062 502.645524,323.366221 501.212856,315.932525 L501.396817,315.675033 C502.844617,313.761104 503.666439,311.443826 503.749291,309.041802 C503.749291,306.242971 502.461562,303.684839 501.881806,300.981168 C501.385668,298.674931 501.407966,296.273534 500.766889,294.00648 C500.322123,292.601137 499.7317,291.246547 499.005321,289.964968 C498.310357,288.673774 497.580086,287.401238 496.81451,286.147362 C496.100964,283.773953 495.385559,281.400544 494.668296,279.027135 C493.664871,275.668537 492.633574,272.30994 490.68247,269.432741 C489.968923,268.374783 489.751514,266.242073 488.653322,265.598342 C487.761026,265.136931 486.749366,264.961111 485.754539,265.094553 C484.204805,264.221317 482.844607,262.961843 482.649496,261.237763 C482.629957,260.861069 482.66755,260.48358 482.760988,260.11823 L482.950524,260.11823 C485.40334,259.888726 486.646472,257.716833 487.923051,255.819226 C489.985647,252.734913 489.199631,248.570252 487.923051,245.066116 C487.605025,243.960833 487.032082,242.946361 486.250677,242.104952 C484.461236,240.425653 481.629348,240.800697 479.321471,239.989035 C478.574092,239.658058 477.80923,239.368412 477.030317,239.121398 C475.497307,238.75755 473.891827,239.261339 472.487033,239.972243 C471.082238,240.683146 469.772211,241.601162 468.300521,242.166526 C466.828832,242.73189 465.011518,243.168508 464.64917,244.685474 C464.547607,245.196395 464.590081,245.72564 464.771811,246.213636 C465.111882,247.184692 465.707059,248.045372 466.494357,248.704596 C465.226167,251.330904 465.167136,254.383195 466.332824,257.056964 C467.498512,259.730733 469.771954,261.757694 472.553928,262.603593 C472.977596,263.28091 473.373391,263.97502 473.735739,264.691521 C474.382391,265.945397 474.9287,267.42318 474.705717,268.766619 C474.302501,269.194956 473.929934,269.651369 473.5908,270.132449 C471.990895,272.371514 471.082238,275.002416 470.246051,277.616524 C469.122145,280.963211 468.222626,284.381697 467.553527,287.849051 C466.193329,290.748641 464.532104,293.525081 463.545403,296.575807 C461.778998,296.579963 460.020122,296.344601 458.316444,295.8761 L453.611497,294.801348 C451.972569,294.431903 450.266747,294.023273 448.984593,292.942924 C448.304494,292.383158 447.774909,291.638669 447.083661,291.078903 C446.392412,290.519136 445.004341,289.875405 444.246198,290.334414 C444.107621,290.418968 443.978643,290.518448 443.861552,290.63109 C443.170304,289.226076 441.475631,292.808581 440.672891,291.481934 C439.524527,289.573131 435.494104,291.784208 433.320017,291.425958 C431.992452,291.212178 430.634234,291.527529 429.534875,292.304791 C428.26387,293.21721 427.466705,295.103622 428.419959,296.379889 C428.656623,296.666991 428.915735,296.934664 429.194826,297.180355 C429.841359,297.923904 430.417998,298.725922 430.917372,299.576155 C432.634343,302.055919 436.586722,299.867233 439.585847,300.438195 C439.518952,300.628515 441.687465,295.909686 441.62057,296.105604 C441.224775,297.26432 440.383013,298.674931 440.594847,299.884026 L461.521829,307.077023 C462.863812,307.625052 464.289031,307.939292 465.736213,308.006235 C466.300339,308.00058 466.861773,307.927292 467.408588,307.787926 L467.408588,308.862677 L467.408588,308.901861 C467.464334,316.285178 466.293672,323.623714 466.076263,331.001433 C466.037241,332.344872 466.076263,333.800264 466.923599,334.852625 C467.871278,336.005743 469.554802,336.22965 471.020918,335.972157 C471.37062,335.915585 471.71681,335.838959 472.05779,335.742653 C472.553697,337.597939 472.911457,339.487701 473.12811,341.396293 L474.516181,351.337741 C474.69426,352.361235 474.767112,353.400396 474.733589,354.438847 C474.571927,356.77867 473.339944,358.883391 472.448011,361.049686 C471.556077,363.215982 471.026492,365.802102 472.197154,367.828456 C472.565077,368.455394 473.072364,368.99277 473.401264,369.642098 C473.819179,370.645456 474.009597,371.729595 473.958722,372.815973 C474.044199,375.838711 474.12596,378.857717 474.204004,381.872991 C473.960126,381.837531 473.711585,381.88903 473.501607,382.018531 C472.342094,382.919754 472.470309,387.24115 472.38669,388.578991 C472.297497,390.818056 472.38669,393.101903 472.264049,395.363358 C472.107576,398.420069 471.606378,401.449101 470.770061,404.392388 C470.569125,405.34727 470.129855,406.235226 469.493482,406.972911 C468.840116,407.540143 468.062823,407.944782 467.224627,408.154018 C464.446898,409.025643 461.542783,409.421147 458.634195,409.323929 C457.457959,409.290343 456.23155,409.172792 455.138932,409.626203 C454.046314,410.079614 453.16553,411.305502 453.561325,412.425034 C453.901375,413.365442 454.932673,413.813255 455.863628,414.165907 C457.988232,414.909458 460.04077,415.846292 461.995669,416.964739 C462.748394,417.478629 463.540623,417.931602 464.364866,418.319373 C465.155872,418.604711 465.974097,418.807301 466.806533,418.923921 L476.690268,420.603219 C478.713841,420.955872 481.149934,421.162986 482.437662,419.483687 C483.134485,418.576866 483.234828,417.34538 483.20138,416.197859 C483.145634,413.958794 482.699668,411.674947 482.989546,409.44148 C483.209668,408.116023 483.556908,406.815043 484.026418,405.556702 L486.980947,396.897118 C487.973223,393.94715 488.976647,390.974791 489.361294,387.884881 C489.500658,386.765349 489.489509,385.494679 488.636598,384.789374 C488.419536,384.613737 488.169187,384.484235 487.900753,384.408733 C487.867306,381.710659 487.516107,379.012586 487.666621,376.314512 C487.705643,375.637195 487.772538,374.965476 487.828284,374.293756 C488.346309,374.785534 488.808134,375.333758 489.205205,375.928274 C490.158459,377.42285 490.509658,379.404422 491.964624,380.406404 C493.202181,381.251651 495.036219,381.212467 495.905853,382.443953 C496.184195,382.915513 496.394413,383.424386 496.530207,383.955322 C497.034961,385.276789 497.792487,386.486241 498.76004,387.515435 C499.093223,388.743813 499.55476,389.933393 500.136961,391.064353 L502.589778,396.27018 C503.424203,398.140259 504.354547,399.965677 505.377069,401.739096 C506.154939,402.856922 506.782831,404.072736 507.244554,405.355186 C508.03057,408.126029 506.748416,411.159962 504.719268,413.191914 C502.69012,415.223866 500.014321,416.399375 497.377543,417.490919 C497.098779,417.583213 496.843721,417.736116 496.630549,417.938732 C496.402052,418.210519 496.281027,418.557167 496.2905,418.912725 C496.2905,420.205785 497.34967,421.308525 498.564929,421.711557 C499.808036,422.041156 501.108592,422.088958 502.372369,421.851498 C509.496685,420.98386 516.598703,419.231792 522.897981,415.761241 C523.838272,415.309736 524.672403,414.662945 525.345223,413.863634 C526.030278,413.030687 526.191831,411.882156 525.763317,410.891275 L525.763317,410.891275 Z" id="Path" fill="url(#linearGradient-1)" fill-rule="nonzero"></path>
                <path d="M494.492071,285.62859 C495.743813,287.463828 496.91732,289.347755 498.012594,291.280373 C498.776758,292.55501 499.39825,293.903329 499.866735,295.302913 C500.54737,297.550143 500.529767,299.94906 501.040243,302.246853 C501.626996,304.943528 503,307.516606 503,310.27508 C502.910412,312.669981 502.045077,314.97891 500.523899,316.881935 C499.005712,318.769172 497.269641,320.486088 495.348732,322 C490.91859,311.009433 488.443415,299.38571 488.026046,287.61177 C487.96737,285.976911 487.955635,284.297107 488.577594,282.774609 C488.958984,281.825155 490.789655,279.207132 491.96903,280.23524 C492.397361,280.611651 492.508844,282.302691 492.772883,282.870116 C493.270486,283.830842 493.845277,284.753108 494.492071,285.62859 Z" id="Path" fill="#2F2E41" fill-rule="nonzero"></path>
                <path d="M494.492071,285.62859 C495.743813,287.463828 496.91732,289.347755 498.012594,291.280373 C498.776758,292.55501 499.39825,293.903329 499.866735,295.302913 C500.54737,297.550143 500.529767,299.94906 501.040243,302.246853 C501.626996,304.943528 503,307.516606 503,310.27508 C502.910412,312.669981 502.045077,314.97891 500.523899,316.881935 C499.005712,318.769172 497.269641,320.486088 495.348732,322 C490.91859,311.009433 488.443415,299.38571 488.026046,287.61177 C487.96737,285.976911 487.955635,284.297107 488.577594,282.774609 C488.958984,281.825155 490.789655,279.207132 491.96903,280.23524 C492.397361,280.611651 492.508844,282.302691 492.772883,282.870116 C493.270486,283.830842 493.845277,284.753108 494.492071,285.62859 Z" id="Path" fill="#000000" fill-rule="nonzero" opacity="0.1"></path>
                <path d="M434.643447,292.167959 C432.590472,291.792231 430.311723,291.974224 428.715548,293.465396 C427.752092,294.379995 427.142476,295.675917 427.014361,297.08178 C426.877847,298.713849 427.723189,300.639456 429.182849,300.768613 C429.534113,300.773034 429.885168,300.74752 430.232964,300.692293 C431.154917,300.685886 432.07558,300.77036 432.984265,300.944735 C436.612897,301.326316 440.181503,299.715386 442.556064,296.623861 C443.810951,294.891989 442.15702,294.105308 440.676358,293.753063 C438.649636,293.271661 436.670169,292.543687 434.643447,292.167959 Z" id="Path" fill="#FBBEBE" fill-rule="nonzero"></path>
                <path d="M472.13789,342.036391 L473.524035,351.810173 C473.700719,352.817121 473.771896,353.839517 473.736428,354.861013 C473.574339,357.16301 472.339104,359.232034 471.450407,361.362075 C470.561709,363.492116 470.019547,366.038181 471.198888,368.018453 C471.562192,368.634168 472.070818,369.161132 472.400587,369.799035 C472.818954,370.787656 473.009898,371.856429 472.959516,372.927532 L473.339588,386.794987 C477.654024,387.088997 481.984437,387.066748 486.295575,386.728423 C486.464882,386.734346 486.630953,386.68137 486.765075,386.578655 C486.878437,386.437321 486.936057,386.259854 486.927165,386.079426 C487.117201,382.834442 486.547093,379.583911 486.73154,376.338926 C486.798611,375.151872 486.96629,373.964818 486.988647,372.777764 C487.055719,367.946343 484.652322,363.214767 485.37893,358.433269 C485.607708,357.228297 485.906299,356.037418 486.273217,354.86656 C488.570418,346.573822 488.084149,337.804043 487.575523,329.217316 C487.585045,329.077181 487.545562,328.938077 487.463737,328.82348 C487.379985,328.743286 487.275535,328.687617 487.161915,328.662617 C482.198437,327.189347 476.823025,328.205386 472.752712,331.386185 C472.143479,331.87432 470.606423,332.340266 470.203994,332.922699 C469.645064,333.738106 470.377262,334.542418 470.701441,335.407747 C471.419287,337.559538 471.900896,339.781969 472.13789,342.036391 L472.13789,342.036391 Z" id="Path" fill="#3F3D56" fill-rule="nonzero"></path>
                <path d="M472.13789,342.036391 L473.524035,351.810173 C473.700719,352.817121 473.771896,353.839517 473.736428,354.861013 C473.574339,357.16301 472.339104,359.232034 471.450407,361.362075 C470.561709,363.492116 470.019547,366.038181 471.198888,368.018453 C471.562192,368.634168 472.070818,369.161132 472.400587,369.799035 C472.818954,370.787656 473.009898,371.856429 472.959516,372.927532 L473.339588,386.794987 C477.654024,387.088997 481.984437,387.066748 486.295575,386.728423 C486.464882,386.734346 486.630953,386.68137 486.765075,386.578655 C486.878437,386.437321 486.936057,386.259854 486.927165,386.079426 C487.117201,382.834442 486.547093,379.583911 486.73154,376.338926 C486.798611,375.151872 486.96629,373.964818 486.988647,372.777764 C487.055719,367.946343 484.652322,363.214767 485.37893,358.433269 C485.607708,357.228297 485.906299,356.037418 486.273217,354.86656 C488.570418,346.573822 488.084149,337.804043 487.575523,329.217316 C487.585045,329.077181 487.545562,328.938077 487.463737,328.82348 C487.379985,328.743286 487.275535,328.687617 487.161915,328.662617 C482.198437,327.189347 476.823025,328.205386 472.752712,331.386185 C472.143479,331.87432 470.606423,332.340266 470.203994,332.922699 C469.645064,333.738106 470.377262,334.542418 470.701441,335.407747 C471.419287,337.559538 471.900896,339.781969 472.13789,342.036391 L472.13789,342.036391 Z" id="Path" fill="#000000" fill-rule="nonzero" opacity="0.1"></path>
                <path d="M497.804881,339.672096 C497.150335,341.034271 496.272013,342.306754 495.880405,343.76983 C494.862223,347.632126 497.497188,351.617746 497.183902,355.575339 C497.083202,356.819794 496.697188,358.041827 496.669216,359.291888 C496.641244,360.541949 497.099986,361.926545 498.207678,362.503928 C498.951734,362.890718 499.886,362.851478 500.585301,363.288719 C501.765721,364.006243 501.899987,365.654306 501.782504,367.027691 C501.665022,368.401076 501.469218,369.948237 502.341945,371.030128 C503.00768,371.865371 504.148939,372.184893 504.865023,372.97529 C505.291151,373.544633 505.653251,374.159373 505.944743,374.808339 C507.013275,376.675022 508.965723,377.824182 510.565724,379.259229 C512.165724,380.694277 513.519571,382.886088 512.803487,384.915335 C512.277613,386.412045 510.800689,387.325766 509.37971,388.032079 C506.786883,389.3143 504.050481,390.281588 501.228658,390.913385 C500.926328,391.008119 500.605132,391.025464 500.294392,390.963836 C499.979495,390.848629 499.698604,390.655851 499.477609,390.403271 C497.827259,388.788842 496.120964,387.090329 495.360125,384.904123 C495.223786,384.37599 495.012794,383.8701 494.733551,383.401808 C493.860824,382.179775 492.020264,382.219015 490.778305,381.378167 C489.323759,380.385966 488.971312,378.412775 488.020263,376.927277 C487.069213,375.441778 485.676206,374.561691 484.663618,373.249968 C482.951729,371.074974 482.532149,368.171244 481.306974,365.687939 C480.721628,364.668996 480.187624,363.621293 479.706973,362.548773 C479.288158,361.232098 479.030789,359.869252 478.940539,358.490279 C478.151728,351.94848 476.143336,345.350625 477.407672,338.870488 C477.687392,337.441046 478.118162,336.067661 478.297183,334.598979 C478.604875,332.054012 478.118162,329.458594 478.492987,326.919232 C478.509924,326.275972 478.821513,325.676354 479.337742,325.293592 C479.639595,325.155687 479.968271,325.086756 480.29998,325.091789 C483.616527,324.91698 486.941491,324.991933 490.246837,325.316015 C491.925159,325.484185 493.80488,325.82613 494.811873,327.193909 C495.667817,328.371097 495.623062,329.951891 495.897188,331.381333 C496.238447,333.135903 497.127958,334.100076 498.062224,335.479067 C498.99649,336.858058 498.515371,338.24826 497.804881,339.672096 Z" id="Path" fill="#3F3D56" fill-rule="nonzero"></path>
                <path d="M485.672004,384.27668 C486.553779,384.27668 487.530428,384.220257 488.211293,384.790132 C489.059583,385.489781 489.070744,386.781875 488.936804,387.882129 C488.546144,390.974127 487.547171,393.947635 486.548198,396.909859 L483.579183,405.711895 C483.110078,406.970907 482.762448,408.272817 482.541144,409.599461 C482.25094,411.856393 482.697408,414.113326 482.753217,416.370258 C482.753217,417.498724 482.680666,418.751322 481.983059,419.654095 C480.721786,421.296013 478.260629,421.104174 476.234778,420.782561 L466.351084,419.089862 C465.517074,418.975679 464.697582,418.771387 463.90667,418.48049 C463.079632,418.099846 462.286146,417.648711 461.534807,417.131973 C459.579015,416.002015 457.523928,415.057595 455.395866,414.310807 C454.469444,413.955341 453.431405,413.509596 453.096554,412.567327 C452.700313,411.438861 453.582088,410.203191 454.675936,409.746162 C455.769783,409.289133 456.991991,409.407622 458.175132,409.447118 C461.084999,409.541907 463.990021,409.143311 466.769648,408.267871 C467.605937,408.059856 468.38211,407.655897 469.035475,407.088624 C469.673125,406.35412 470.113225,405.466167 470.313491,404.510079 C471.155206,401.569328 471.657108,398.53989 471.80916,395.482349 C471.926358,393.225417 471.848226,390.968484 471.93752,388.711552 C471.993329,387.368677 471.864969,383.069221 473.025787,382.149521 C473.913143,381.461157 477.563022,383.35698 478.762905,383.639097 C481.030737,384.141378 483.351704,384.355561 485.672004,384.27668 Z" id="Path" fill="#2F2E41" fill-rule="nonzero"></path>
                <path d="M517.826506,391.35064 C518.768586,394.506115 518.915616,397.832007 519.525518,401.069942 C520.13542,404.307876 521.213639,407.617277 523.593345,409.86569 C524.057703,410.235512 524.457165,410.681516 524.77503,411.185052 C525.184687,412.144783 525.026931,413.255329 524.366614,414.060162 C523.707487,414.838942 522.892839,415.468384 521.976016,415.907269 C515.827988,419.29913 508.906692,421.003306 501.93094,421.849897 C500.698846,422.087605 499.429568,422.042513 498.217074,421.71796 C497.029944,421.311157 495.978952,420.233678 496.000734,418.969289 C495.989569,418.624086 496.106036,418.287039 496.327468,418.023746 C496.537716,417.82465 496.788662,417.674528 497.062617,417.583959 C499.632917,416.522972 502.241337,415.385022 504.228963,413.394984 C506.21659,411.404946 507.463621,408.447375 506.695798,405.775667 C506.247009,404.523792 505.633419,403.338561 504.871538,402.25187 C503.875943,400.521614 502.967202,398.74189 502.148762,396.919448 L499.75272,391.845401 C499.050243,390.361118 498.342322,388.832857 498.22252,387.194649 C501.232623,387.333573 504.238927,386.847092 507.055204,385.76534 C508.371199,385.226205 509.596469,384.484422 510.687388,383.566403 C511.613131,382.78578 512.457192,381.328984 513.704223,382.35149 C514.706205,383.165097 515.337889,385.451991 515.926008,386.617428 C516.685372,388.140634 517.320959,389.723573 517.826506,391.35064 Z" id="Path" fill="#2F2E41" fill-rule="nonzero"></path>
                <path d="M481.592831,262.838854 C481.844342,264.910238 483.970759,266.28395 486,267.100605 L473.155759,271 C473.984604,269.496489 473.315812,267.66307 472.492683,266.132517 C471.823592,264.925992 471.059267,263.768937 470.206214,262.671196 C470.080458,262.49813 469.937554,262.287206 470.029012,262.097915 C470.110585,261.970736 470.23877,261.876406 470.389131,261.832907 C473.030003,260.718794 475.750902,259.566823 478.637569,259.1612 C479.47213,259.042217 481.049794,258.728535 481.672857,259.528965 C482.29592,260.329396 481.472791,261.881582 481.592831,262.838854 Z" id="Path" fill="#FBBEBE" fill-rule="nonzero"></path>
                <path d="M481.592831,262.838854 C481.844342,264.910238 483.970759,266.28395 486,267.100605 L473.155759,271 C473.984604,269.496489 473.315812,267.66307 472.492683,266.132517 C471.823592,264.925992 471.059267,263.768937 470.206214,262.671196 C470.080458,262.49813 469.937554,262.287206 470.029012,262.097915 C470.110585,261.970736 470.23877,261.876406 470.389131,261.832907 C473.030003,260.718794 475.750902,259.566823 478.637569,259.1612 C479.47213,259.042217 481.049794,258.728535 481.672857,259.528965 C482.29592,260.329396 481.472791,261.881582 481.592831,262.838854 Z" id="Path" fill="#000000" fill-rule="nonzero" opacity="0.1"></path>
                <circle id="Oval" fill="#FBBEBE" fill-rule="nonzero" cx="474" cy="255" r="10"></circle>
                <path d="M464.866261,335.61679 C465.847042,336.726039 467.573446,336.970074 469.081899,336.726039 C472.60927,336.171414 475.494257,333.658964 478.947065,332.74938 C483.17991,331.640131 487.659384,333.071062 491.657071,334.812584 C495.654757,336.554105 499.629502,338.667225 504,339 C500.048198,330.480965 502.308009,320.225955 498.528274,311.634819 C497.604848,309.532791 496.314347,307.508411 496.107867,305.23445 C495.849766,302.411411 497.306599,299.688203 497.530286,296.881803 C497.736766,294.380445 496.95673,291.890181 496.211107,289.510841 C495.289593,286.582423 494.36808,283.652156 493.446566,280.72004 C492.414165,277.442208 491.353086,274.11446 489.351375,271.29142 C488.611487,270.254272 488.3878,268.157791 487.26363,267.525519 C484.80881,266.155596 481.08643,267.886025 478.425129,267.980311 C475.763829,268.074597 473.337686,269.904859 471.783349,271.968062 C470.137242,274.186561 469.202346,276.76002 468.342011,279.333478 C466.971449,283.165116 465.948567,287.104893 465.284957,291.10816 C465.198923,291.707154 465.124361,292.306149 465.067006,292.91069 C464.493449,298.606685 465.330841,304.335958 465.376726,310.054139 L465.376726,310.092962 C465.434082,317.352999 464.229614,324.568666 464.005927,331.823157 C463.982984,333.176441 463.982984,334.601826 464.866261,335.61679 Z" id="Path" fill="#2F2E41" fill-rule="nonzero"></path>
                <path d="M466.493103,311 C468.416152,310.508817 470.155258,309.249808 471.649105,307.877884 C472.939945,306.712472 474.08889,305.395223 475.071576,303.954068 C476.307476,301.983168 477.29789,299.864968 478.020252,297.647732 C480.085099,291.768856 481.396425,285.645854 481.922091,279.428802 C482.067017,277.735069 482.111609,275.922774 481.113853,274.579078 C479.961952,273.078282 477.940609,272.579898 476.236554,273.376527 C474.921076,274.031438 474.068246,275.346904 473.27673,276.600267 C471.71042,279.101347 470.132962,281.625011 469.124058,284.402734 C468.678133,285.633514 468.349264,286.903814 467.914487,288.14024 C467.471258,289.359282 466.961372,290.552387 466.387196,291.714018 C466.303585,292.323762 466.231122,292.933506 466.175382,293.548896 C465.656994,299.347112 466.448511,305.173556 466.493103,311 Z" id="Path" fill="#000000" fill-rule="nonzero" opacity="0.1"></path>
                <path d="M481.09671,273.568098 C482.111561,274.904122 482.066205,276.728524 481.924466,278.390133 C481.389096,284.57341 480.055327,290.663222 477.955773,296.510653 C477.224488,298.714826 476.216893,300.819488 474.956574,302.775369 C473.958469,304.209394 472.789697,305.519282 471.475464,306.676782 C469.547813,308.422594 467.200614,309.971932 464.586946,310 C463.11623,309.928701 461.667734,309.615685 460.300758,309.073765 L439.034232,301.916496 C438.818789,300.715198 439.674892,299.317425 440.077431,298.161035 L441.211344,294.82659 C441.534509,293.905969 441.9087,292.917985 442.753464,292.41838 C443.598229,291.918774 444.936246,292.603627 445.639271,293.153754 C446.342297,293.703881 446.875236,294.444869 447.566922,295.011837 C448.876591,296.089637 450.605807,296.488199 452.272658,296.858693 L457.052099,297.925266 C458.785606,298.390539 460.574081,298.624632 462.370148,298.621346 C463.702495,294.596435 466.236789,291.043061 467.671188,287.051831 C468.113414,285.822465 468.447918,284.559418 468.907152,283.341279 C469.927673,280.573801 471.537829,278.064547 473.130976,275.583361 C473.930384,274.33154 474.797827,273.023584 476.141513,272.378027 C477.871344,271.581155 479.927868,272.075062 481.09671,273.568098 L481.09671,273.568098 Z" id="Path" fill="#2F2E41" fill-rule="nonzero"></path>
                <path d="M477.131773,256.195662 C477.054507,255.546336 476.850245,254.918038 476.530349,254.345715 C476.184856,253.761071 475.497879,253.46242 474.828203,253.605736 C473.829611,253.914061 473.494856,255.444472 472.450873,255.494925 C471.74732,255.52856 471.24235,254.822217 471.021071,254.155114 C470.799792,253.488012 470.680642,252.742428 470.152977,252.271532 C469.785764,251.999813 469.364067,251.808689 468.916084,251.710942 C466.493364,250.954145 463.99121,249.55267 463.185528,247.170162 C462.995645,246.686567 462.95035,246.159259 463.05503,245.650963 C463.423828,244.142976 465.324557,243.694504 466.771381,243.145126 C468.218205,242.595748 469.60829,241.670774 471.026745,240.970036 C472.445199,240.269299 474.090607,239.759162 475.650907,240.11794 C476.442731,240.36589 477.221078,240.654043 477.982846,240.981248 C480.331807,241.782892 483.208433,241.407297 485.029729,243.083461 C485.824567,243.917783 486.407899,244.926393 486.731874,246.026559 C488.002809,249.507823 488.808492,253.644978 486.703505,256.711405 C485.404201,258.600594 484.144613,260.758865 481.648133,260.983101 C478.743138,261.235367 477.591353,258.617411 477.131773,256.195662 Z" id="Path" fill="#2F2E41" fill-rule="nonzero"></path>
                <g id="Group" opacity="0.1" transform="translate(464.000000, 245.000000)" fill="#000000" fill-rule="nonzero">
                    <path d="M9.19153846,9.748125 C8.98153846,9.084375 8.86846154,8.330625 8.37307692,7.858125 C8.02458198,7.58547998 7.62437926,7.39370525 7.19923077,7.295625 C4.89461538,6.53625 2.52538462,5.13 1.75538462,2.739375 C1.57961191,2.25296174 1.53855689,1.7246616 1.63692308,1.215 C1.69183012,0.975437595 1.78857776,0.748514183 1.92230769,0.545625 C1.04461538,0.945 0.28,1.47375 0.0646153846,2.4075 C-0.0347291747,2.91752772 0.008257314,3.44663199 0.188461538,3.931875 C0.953076923,6.3225 3.32769231,7.72875 5.62692308,8.488125 C6.05207157,8.58620525 6.45227429,8.77797998 6.80076923,9.050625 C7.30153846,9.523125 7.40923077,10.276875 7.62461538,10.940625 C7.84,11.604375 8.31384615,12.31875 8.98153846,12.285 C9.64923077,12.25125 9.97230769,11.615625 10.3976923,11.075625 C9.81076923,11.0025 9.38538462,10.36125 9.19153846,9.748125 Z" id="Path"></path>
                    <path d="M19.2715385,16.588125 C16.5038462,16.8525 15.4107692,14.225625 14.9638462,11.795625 C14.9047231,11.1473223 14.7216186,10.518015 14.4253846,9.945 C14.0978911,9.35759118 13.4465868,9.05595589 12.81,9.196875 C12.2984615,9.365625 11.97,9.894375 11.62,10.321875 C12.1199172,10.3707677 12.5696471,10.6597199 12.8369231,11.10375 C13.1405139,11.6780229 13.3343646,12.3084619 13.4076923,12.96 C13.8438462,15.39 14.9369231,18.0225 17.7153846,17.7525 C18.8135706,17.6300825 19.8279669,17.0821789 20.5584615,16.216875 C20.1523499,16.4148506 19.7173524,16.5403381 19.2715385,16.588125 L19.2715385,16.588125 Z" id="Path"></path>
                </g>
                <path d="M142.171141,214 C116.652448,209.563158 86.9851465,210.339605 55,214 C61.4888473,177.55134 61.791175,141.845851 55,107 L142.171141,107 C148.60962,142.381536 148.60962,178.618464 142.171141,214 L142.171141,214 Z" id="Path" fill="#F2F2F2" fill-rule="nonzero"></path>
                <rect id="Rectangle" fill="#3F3D56" fill-rule="nonzero" x="86" y="101" width="31" height="9"></rect>
                <rect id="Rectangle" fill="#59C4FF" fill-rule="nonzero" x="216" y="243" width="54" height="7"></rect>
                <rect id="Rectangle" fill="#59C4FF" fill-rule="nonzero" x="216" y="257" width="54" height="7"></rect>
                <rect id="Rectangle" fill="#59C4FF" fill-rule="nonzero" x="289" y="24" width="54" height="7"></rect>
                <rect id="Rectangle" fill="#59C4FF" fill-rule="nonzero" x="289" y="39" width="54" height="7"></rect>
                <rect id="Rectangle" fill="#59C4FF" fill-rule="nonzero" x="74" y="126" width="54" height="7"></rect>
                <path d="M71.6208516,403.826116 L82.4391072,397.601757 C80.9760648,395.155568 79.105833,392.965808 76.9056316,391.122891 L56.4956415,397.336184 L72.4912859,388.129667 C64.4354246,383.809917 54.6488729,383.971565 46.7464822,388.554901 C38.8440915,393.138236 33.9986825,401.463033 34.0000003,410.454366 C34.0000003,424.513117 45.6378207,425 59.9999876,425 C74.3621546,425 85.999975,424.513117 85.999975,410.454366 C86.0050259,406.897666 85.2442934,403.379848 83.7673674,400.13023 L71.6208516,403.826116 Z" id="Path" fill="url(#linearGradient-2)" fill-rule="nonzero"></path>
                <path d="M74.4247892,417.393128 C73.2724476,416.247717 71.9846335,415.244506 70.5893573,414.405314 C68.6207286,413.110408 66.5898731,411.79308 64.2705117,411.350233 C62.2339992,410.969049 60.1352599,411.294177 58.0478346,411.176458 C54.4475556,410.955989 51.0584115,409.41764 48.5384527,406.860104 C47.0619812,405.340972 45.8966435,403.496712 44.120352,402.325131 C42.2026361,401.07507 39.7701351,400.805998 37.4960295,401.119915 C36.8360533,401.213146 36.1824088,401.346059 35.5387147,401.517916 C34.5173141,404.322216 33.9966338,407.281377 34.0000164,410.262736 C34.0000164,424.506702 45.6477364,425 60.0221203,425 C66.9971756,425 73.3273352,424.882281 78,423.133317 L77.2363078,421.715087 C76.4895502,420.161197 75.5446616,418.708683 74.4247892,417.393128 Z" id="Path" fill="#000000" fill-rule="nonzero" opacity="0.1"></path>
                <path d="M334.794875,383.406712 L320.643106,375.01349 C322.561071,371.711113 325.009868,368.754631 327.88899,366.265386 L354.581711,374.652975 L333.663402,362.226499 C344.198314,356.393228 356.99707,356.611084 367.331635,362.79959 C377.666201,368.988096 384.002569,380.228662 383.999999,392.368872 C383.999999,411.346568 368.778069,412 350.000083,412 C331.222096,412 316.000167,411.346568 316.000167,392.368872 C315.985226,387.555835 316.974729,382.793709 318.904094,378.393311 L334.794875,383.406712 Z" id="Path" fill="url(#linearGradient-3)" fill-rule="nonzero"></path>
                <path d="M330.734462,400.860245 C332.25897,399.336914 333.957594,397.999358 335.795052,396.87536 C338.387198,395.15628 341.06931,393.392109 344.122532,392.805931 C346.804644,392.293025 349.5711,392.727023 352.298195,392.569205 C357.046554,392.281537 361.517358,390.229694 364.837211,386.814514 C366.782726,384.791072 368.317771,382.305451 370.662511,380.766733 C373.187183,379.075835 376.392223,378.748928 379.389216,379.16038 C380.260449,379.2892 381.123934,379.466074 381.975739,379.690194 C383.319824,383.432307 384.004764,387.380134 383.999975,391.357395 C383.999975,410.346186 368.643898,411 349.700426,411 C340.507022,411 332.162673,410.847819 326,408.520015 L327.028986,406.592391 C328.017861,404.532578 329.262919,402.606548 330.734462,400.860245 Z" id="Path" fill="#000000" fill-rule="nonzero" opacity="0.1"></path>
            </g>
        </g>
    </g>
</svg>